<svg width="30" height="30" viewBox="0 0 34 34" fill="none" xmlns="http://www.w3.org/2000/svg"><path d="M26.076 8.083V8.1m0 12.388-5.906-8.862a7.356 7.356 0 0 1-.845-3.528 7.358 7.358 0 0 1 .935-3.504 6.9 6.9 0 0 1 2.466-2.553 6.49 6.49 0 0 1 3.35-.935c1.173 0 2.329.321 3.348.935 1.02.61 1.87 1.49 2.467 2.553a7.38 7.38 0 0 1 .934 3.504 7.354 7.354 0 0 1-.843 3.528l-5.906 8.862Z" stroke-linecap="round" stroke-linejoin="round" style="stroke-width:2px;stroke:#7cb7e1"/><path d="m13.418 5.867-2.531-1.329L.76 9.855v23.04l10.127-5.317 10.125 5.317 10.126-5.317v-3.546M10.887 4.538v23.04m10.125-3.546v8.863" stroke-linecap="round" stroke-linejoin="round" style="stroke:#fefefe"/></svg>