<svg width="32" height="32" viewBox="0 0 32 32" fill="none" xmlns="http://www.w3.org/2000/svg"><path fill-rule="evenodd" clip-rule="evenodd" d="M4 25a1 1 0 0 1 1-1h14a1 1 0 0 1 0 2H5a1 1 0 0 1-1-1Z" fill="#7cb7e1" fill-opacity=".8"/><path fill-rule="evenodd" clip-rule="evenodd" d="M12 7a1 1 0 0 1 1-1h14a1 1 0 1 1 0 2H13a1 1 0 0 1-1-1Z" fill="#fff" fill-opacity=".8"/><path fill-rule="evenodd" clip-rule="evenodd" d="M4 13a1 1 0 0 1 1-1h22a1 1 0 0 1 0 2H5a1 1 0 0 1-1-1Z" fill="#7cb7e1" fill-opacity=".8"/><path fill-rule="evenodd" clip-rule="evenodd" d="M4 19a1 1 0 0 1 1-1h22a1 1 0 0 1 0 2H5a1 1 0 0 1-1-1Z" fill="#FCFCFC" fill-opacity=".8"/></svg>